<svg id="ic_allergies" xmlns="http://www.w3.org/2000/svg" width="24" height="24" viewBox="0 0 24 24">
    <rect id="bound" width="24" height="24" opacity="0"/>
    <path id="Fill" d="M3.914,20a.683.683,0,0,1-.648-.9l.981-2.957a4.162,4.162,0,0,1-1.716-.982A8.177,8.177,0,0,1,.038,9.886,9.931,9.931,0,0,1,1.191,4.337,8.089,8.089,0,0,1,6.039.475,10.247,10.247,0,0,1,8.954,0h.078a5.656,5.656,0,0,1,4.933,2.4,3.7,3.7,0,0,1,.273.553,7.293,7.293,0,0,1,2.2,4.958,3.342,3.342,0,0,0,1.206,2.767,1,1,0,0,1-.122,1.66c-.2.114-.432.224-.617.311l-.026.014c-.1.05-.246.118-.359.178v.535a.679.679,0,0,1-.189.472l-.526.551.236.223a.687.687,0,0,1,.214.5v.826a2.034,2.034,0,0,1-2.031,2.031H13.108a1.953,1.953,0,0,0-1.6.837l-.636.9a.686.686,0,0,1-.558.289ZM9.186,12.95a.677.677,0,0,1,.1.638c-.006.02-.024.068-.051.135a4.145,4.145,0,0,1-2.97,2.49,4.273,4.273,0,0,1-.63.085l-.775,2.336h5.1l.431-.61a3.319,3.319,0,0,1,2.72-1.417h1.118a.667.667,0,0,0,.667-.666V15.41l-.522-.491a.685.685,0,0,1-.025-.968l.812-.849v-.571c0-.556.486-.789,1.158-1.112l.047-.023.031-.014a4.8,4.8,0,0,1-1.318-3.473,5.171,5.171,0,0,0-.7-2.517,5.548,5.548,0,0,1-.515,1.33A7.847,7.847,0,0,1,9.7,10.044c-1.675.754-1.851,1.017-1.855,1.438a1.369,1.369,0,0,0,.291,1,.761.761,0,0,0,.477.2h.032A.673.673,0,0,1,9.186,12.95ZM6.447,1.778A6.668,6.668,0,0,0,2.391,4.986c-1.4,2.6-1.663,6.578,1.08,9.19a2.733,2.733,0,0,0,1.67.759.585.585,0,0,1,.091.006l.137,0a2.866,2.866,0,0,0,.608-.065A2.726,2.726,0,0,0,7.645,13.8a1.98,1.98,0,0,1-.446-.322,2.63,2.63,0,0,1-.716-2.005C6.494,9.993,7.838,9.387,9.137,8.8a6.665,6.665,0,0,0,3.525-2.724,3.11,3.11,0,0,0,.352-2.507l0-.009a2.446,2.446,0,0,0-.216-.462,4.31,4.31,0,0,0-3.77-1.734H8.958A8.958,8.958,0,0,0,6.447,1.778Zm11.9,15-.773-.331a.581.581,0,0,1-.305-.752.565.565,0,0,1,.312-.315.557.557,0,0,1,.437,0l.773.33a.583.583,0,0,1,.305.752.568.568,0,0,1-.749.312ZM18,15.019a.692.692,0,0,1,0-1.365h1.417a.692.692,0,0,1,0,1.365Zm-.536-1.771a.591.591,0,0,1,.3-.756l.772-.338a.559.559,0,0,1,.437-.005.578.578,0,0,1,.315.321.591.591,0,0,1-.3.756l-.773.338a.564.564,0,0,1-.752-.317ZM3.064,6.123A.684.684,0,0,1,2.787,5.2a6.232,6.232,0,0,1,3.792-2.99c.239-.075.487-.14.736-.2a.683.683,0,1,1,.291,1.334c-.212.046-.42.1-.619.164a4.911,4.911,0,0,0-3,2.336.681.681,0,0,1-.923.276ZM8.926,3.18a.683.683,0,0,1-.641-.719.683.683,0,1,1,.682.72Z" transform="translate(2 2)" fill="#fff"/>
</svg>
