<svg xmlns="http://www.w3.org/2000/svg" width="27.94" height="31.966" viewBox="0 0 27.94 31.966"><defs><style>.a{fill:#9393aa;}</style></defs><path class="a" d="M19.194,31.459a14.628,14.628,0,0,1-3.443-1.39,11.008,11.008,0,0,1-3.56,0,14.664,14.664,0,0,1-3.443,1.39,14.591,14.591,0,0,1-3.777.508,12.979,12.979,0,0,1-4.575-.821.609.609,0,0,1-.377-.425.6.6,0,0,1,.14-.549C1.6,28.58,1.646,24.553,1.479,20.439a3.163,3.163,0,0,1-.217-4.417c-.2-4.069-.346-7.008,1.032-9.675.071-.139.152-.284.24-.436a5.874,5.874,0,0,1,4.76-2.849A8.394,8.394,0,0,1,13.453.009C13.626,0,13.8,0,13.975,0a14.6,14.6,0,0,1,7.241,1.92,10.933,10.933,0,0,1,4.431,4.427c1.377,2.665,1.232,5.6,1.032,9.674a3.163,3.163,0,0,1-.218,4.418c-.167,4.114-.124,8.14,1.321,9.733a.6.6,0,0,1,.14.549.611.611,0,0,1-.377.425,13.032,13.032,0,0,1-4.594.821A14.5,14.5,0,0,1,19.194,31.459Zm5.519-10.186a10.883,10.883,0,0,1-7.151,8.338,14.279,14.279,0,0,0,1.991.688,13.348,13.348,0,0,0,3.42.463,11.739,11.739,0,0,0,3.38-.494c-.968-1.642-1.3-4.279-1.139-9.1A3.252,3.252,0,0,1,24.712,21.272ZM1.588,30.267a11.78,11.78,0,0,0,3.37.486,14,14,0,0,0,5.42-1.144,10.879,10.879,0,0,1-7.149-8.337,3.184,3.184,0,0,1-.5-.11C2.886,25.988,2.555,28.625,1.588,30.267ZM4.281,15.411v3.96a9.69,9.69,0,0,0,19.379,0v-2.4h-.292a22.586,22.586,0,0,1-9.829-2.114,17.987,17.987,0,0,1-4.3-2.849A6.439,6.439,0,0,1,4.281,15.411Zm20.6.924v3.036c0,.2-.006.4-.019.63a1.968,1.968,0,0,0,.019-3.757ZM1.687,18.119A1.967,1.967,0,0,0,3.079,20c-.013-.236-.019-.442-.019-.63V16.243A1.968,1.968,0,0,0,1.687,18.119Zm7.8-7.561c1.175,1.219,5.648,5.2,13.9,5.2l.274,0V14.376a.611.611,0,0,1,1.221,0v.616a3.241,3.241,0,0,1,.616.185c.19-4.189.1-6.266-.936-8.276a9.741,9.741,0,0,0-3.954-3.93,13.369,13.369,0,0,0-6.632-1.758c-.158,0-.319,0-.477.008A7.152,7.152,0,0,0,8.082,4.028a.612.612,0,0,1-.472.238H7.6A4.7,4.7,0,0,0,3.589,6.521c-.072.123-.143.251-.209.38-1.039,2.01-1.127,4.085-.937,8.276a3.276,3.276,0,0,1,.617-.185v-.112a.608.608,0,0,1,.544-.6,5.417,5.417,0,0,0,4.876-3.531.609.609,0,0,1,.451-.365.588.588,0,0,1,.112-.011A.619.619,0,0,1,9.486,10.558ZM11,25.011a.6.6,0,0,1,0-.859.613.613,0,0,1,.863,0,3,3,0,0,0,4.224,0,.613.613,0,0,1,.863,0,.6.6,0,0,1,0,.859,4.232,4.232,0,0,1-5.95,0Zm7.125-6.58a.6.6,0,0,1,0-.858,2.235,2.235,0,0,1,3.145,0,.6.6,0,0,1,0,.858.614.614,0,0,1-.863,0,1.008,1.008,0,0,0-1.418,0,.613.613,0,0,1-.863,0Zm-11.445,0a.6.6,0,0,1,0-.858,2.235,2.235,0,0,1,3.145,0,.6.6,0,0,1,0,.858.614.614,0,0,1-.863,0,1.008,1.008,0,0,0-1.418,0,.613.613,0,0,1-.863,0Z"/></svg>