<svg xmlns="http://www.w3.org/2000/svg" width="27.965" height="31.943" viewBox="0 0 27.965 31.943"><defs><style>.a{fill:#9393aa;}</style></defs><path class="a" d="M13.982,31.943A11.06,11.06,0,0,1,5.99,28.529a11.619,11.619,0,0,1-3.111-6.077,3.348,3.348,0,0,1-.185-6.6v-6a2.085,2.085,0,0,0-.385.3,1,1,0,0,1-1.265.132A1.038,1.038,0,0,1,.617,9.067L.906,8.2a4.566,4.566,0,0,1,.679-1.3C1.913,3.772,4.046,1.569,7.751.53A14.261,14.261,0,0,1,11.607,0a14.818,14.818,0,0,1,4.846.823l3.721,1.283a3.764,3.764,0,0,1,3.386.428,3.9,3.9,0,0,1,1.712,3.242V15.853a3.349,3.349,0,0,1-.167,6.6,11.455,11.455,0,0,1-3.14,6.133,11.122,11.122,0,0,1-7.981,3.361ZM3.879,20.354a10.464,10.464,0,0,0,2.956,7.329,9.939,9.939,0,0,0,14.292.047,10.29,10.29,0,0,0,2.959-7.262V14.873A5.085,5.085,0,0,1,19.649,9.8V8.163A11.5,11.5,0,0,1,13.4,11.622a11.587,11.587,0,0,1-2.2.212A11.466,11.466,0,0,1,4.847,9.905a2.038,2.038,0,0,0-.968-.334ZM1.185,19.139A2.138,2.138,0,0,0,2.723,21.2c-.02-.284-.03-.568-.03-.841V17.089A2.145,2.145,0,0,0,1.185,19.139Zm24.086,1.329c0,.238-.008.482-.023.725a2.145,2.145,0,0,0,.023-4.1ZM20.785,3.175,20.834,9.8a3.915,3.915,0,0,0,3.252,3.861V5.776A2.658,2.658,0,0,0,22.9,3.538a2.592,2.592,0,0,0-1.45-.452A2.562,2.562,0,0,0,20.785,3.175ZM5.5,8.9A10.292,10.292,0,0,0,11.2,10.628a10.422,10.422,0,0,0,1.974-.19,10.411,10.411,0,0,0,6.472-4.145L19.6,3.181,16.072,1.963a13.671,13.671,0,0,0-4.465-.758,13.094,13.094,0,0,0-3.542.486c-2.615.733-4.289,2.051-4.979,3.917C3.2,5.545,3.3,5.5,3.4,5.455a4.414,4.414,0,0,1,1.772-.369,4.475,4.475,0,0,1,1.9.427,3.22,3.22,0,0,0,1.391.311,3.309,3.309,0,0,0,2.5-1.135l.147-.168a.586.586,0,0,1,.837-.052A.611.611,0,0,1,12,5.32l-.147.168a4.486,4.486,0,0,1-3.387,1.54,4.379,4.379,0,0,1-1.888-.423,3.3,3.3,0,0,0-1.4-.315,3.262,3.262,0,0,0-1.306.272A3.355,3.355,0,0,0,2.03,8.584l-.115.346a3.162,3.162,0,0,1,1.813-.571A3.194,3.194,0,0,1,5.5,8.9ZM12,25.358a.61.61,0,0,1,0-.852.586.586,0,0,1,.838,0,1.6,1.6,0,0,0,2.282,0,.586.586,0,0,1,.838,0,.608.608,0,0,1,0,.852,2.767,2.767,0,0,1-3.958,0Zm7.006-5.639a1.109,1.109,0,1,1,1.109,1.128A1.118,1.118,0,0,1,19.009,19.719Zm-12.271,0a1.109,1.109,0,1,1,1.11,1.128A1.118,1.118,0,0,1,6.737,19.719Zm14.146-2.088a1.072,1.072,0,0,0-1.532,0,.586.586,0,0,1-.838,0,.61.61,0,0,1,0-.852,2.245,2.245,0,0,1,3.208,0,.61.61,0,0,1,0,.852.587.587,0,0,1-.839,0Zm-12.271,0a1.07,1.07,0,0,0-1.533,0,.586.586,0,0,1-.838,0,.61.61,0,0,1,0-.852,2.244,2.244,0,0,1,3.208,0,.61.61,0,0,1,0,.852.586.586,0,0,1-.838,0Z"/></svg>